<svg xmlns="http://www.w3.org/2000/svg" viewBox="0 0 311.49 222.66"><defs><style>.cls-1{fill:aqua;}</style></defs><g id="Layer_2" data-name="Layer 2"><g id="Layer_1-2" data-name="Layer 1"><polygon class="cls-1" points="183.17 0 132.17 86.66 157.67 132.25 240 132.25 272.17 197.66 220.09 197.66 199.17 156.66 172.17 155.66 211.17 222.66 311.49 222.66 253.17 119.66 249.19 110.77 170.55 110.66 160.67 88.16 183.17 47.49 207.67 89.16 236.67 87.16 183.17 0"/><polygon class="cls-1" points="58.17 219.66 117.96 111.33 183.41 219.66 160.34 219.66 156.25 219.66 120.79 156.77 82.72 222.66 58.17 222.66 58.17 219.66"/><polygon class="cls-1" points="123.57 0 151.66 0 30.13 222.66 7.66 222.66 0 222.66 123.57 0"/></g></g></svg>